<?xml version="1.0"?>
<svg xmlns="http://www.w3.org/2000/svg" height="512px" viewBox="-9 0 512 512" width="512px" class=""><g><path d="m266.332031 166.613281c-27.542969-10.480469-57.976562-10.480469-85.519531 0-20.300781 7.667969-38.175781 20.632813-51.773438 37.546875-17.320312 21.429688-26.730468 48.175782-26.640624 75.734375 0 1.328125.085937 2.644531.179687 3.96875l.09375 1.703125c2.339844 52.410156 38.261719 97.308594 88.882813 111.089844 20.929687 5.875 43.074218 5.875 64 0 50.640624-13.773438 86.585937-58.683594 88.917968-111.113281l.101563-1.707031c.09375-1.324219.171875-2.636719.171875-3.96875.085937-27.550782-9.328125-54.289063-26.648438-75.714844-13.589844-16.914063-31.464844-29.878906-51.765625-37.539063zm35.535157 44.757813-12.382813 38.117187-23.839844 7.757813-33.539062-24.34375v-25.082032l32.429687-23.5c14.308594 6.113282 27.066406 15.355469 37.332032 27.050782zm-47.789063 58.597656-11.664063 35.910156h-37.726562l-11.664062-35.910156 30.550781-22.1875zm-9.828125-92.058594-20.675781 15.011719-20.667969-15.011719c13.636719-2.832031 27.707031-2.832031 41.34375 0zm-61.636719 6.410156 32.425781 23.535157v25.035156l-33.59375 24.40625-23.800781-7.730469-12.363281-38.195312c10.269531-11.691406 23.023438-20.933594 37.332031-27.050782zm-49.664062 44.371094 7.917969 24.355469-20.75 15.078125c1.542968-13.878906 5.910156-27.300781 12.832031-39.433594zm1.238281 104.519532c-7.953125-13.398438-12.792969-28.410157-14.15625-43.929688l32.347656-23.503906 23.84375 7.742187 12.800782 39.40625-14.722657 20.285157zm12.730469 17.066406h25.542969l7.875 24.242187c-12.652344-5.769531-24.015626-14.023437-33.417969-24.269531zm99.695312 31.042968c-15.175781 3.558594-30.964843 3.558594-46.140625 0l-12.378906-38.101562 14.71875-20.273438h41.453125l14.730469 20.273438zm20.164063-6.828124 7.875-24.242188h25.550781c-9.398437 10.230469-20.753906 18.472656-33.390625 24.242188zm46.15625-41.308594h-40.105469l-14.730469-20.28125 12.800782-39.425782 23.816406-7.738281 32.402344 23.542969c-1.363282 15.511719-6.199219 30.515625-14.148438 43.902344zm-6.679688-80.160156 7.945313-24.328126c6.910156 12.128907 11.265625 25.546876 12.796875 39.421876zm0 0" data-original="#000000" class="active-path" data-old_color="#000000" fill="#FFFFFF"/><path d="m375.46875 349.867188h17.066406v17.066406h-17.066406zm0 0" data-original="#000000" class="active-path" data-old_color="#000000" fill="#FFFFFF"/><path d="m375.46875 315.734375h17.066406v17.066406h-17.066406zm0 0" data-original="#000000" class="active-path" data-old_color="#000000" fill="#FFFFFF"/><path d="m375.46875 281.601562h17.066406v17.066407h-17.066406zm0 0" data-original="#000000" class="active-path" data-old_color="#000000" fill="#FFFFFF"/><path d="m324.265625 418.132812h17.066406v17.066407h-17.066406zm0 0" data-original="#000000" class="active-path" data-old_color="#000000" fill="#FFFFFF"/><path d="m290.132812 418.132812h17.066407v17.066407h-17.066407zm0 0" data-original="#000000" class="active-path" data-old_color="#000000" fill="#FFFFFF"/><path d="m256 418.132812h17.066406v17.066407h-17.066406zm0 0" data-original="#000000" class="active-path" data-old_color="#000000" fill="#FFFFFF"/><path d="m407.101562 437.699219-12.066406 12.066406 25.597656 25.601563c1.597657 1.605468 3.769532 2.507812 6.035157 2.5h.476562c2.421875-.132813 4.671875-1.292969 6.1875-3.183594l34.132813-42.667969-13.328125-10.664063-28.160157 35.226563zm0 0" data-original="#000000" class="active-path" data-old_color="#000000" fill="#FFFFFF"/><path d="m426.667969 512c37.679687.023438 68.242187-30.503906 68.261719-68.183594.019531-31.136718-21.046876-58.335937-51.195313-66.105468v-335.042969c0-4.714844-3.820313-8.535157-8.535156-8.535157h-25.597657v-8.53125c0-14.140624-11.464843-25.601562-25.601562-25.601562-14.140625 0-25.601562 11.460938-25.601562 25.601562v8.53125h-17.066407v-8.53125c0-14.140624-11.460937-25.601562-25.597656-25.601562-14.140625 0-25.601563 11.460938-25.601563 25.601562v8.53125h-136.53125v-8.53125c0-14.140624-11.460937-25.601562-25.601562-25.601562s-25.601562 11.460938-25.601562 25.601562v8.53125h-17.066407v-8.53125c0-14.140624-11.460937-25.601562-25.597656-25.601562-14.140625 0-25.601563 11.460938-25.601563 25.601562v8.53125h-25.597656c-4.714844 0-8.535156 3.820313-8.535156 8.535157v418.132812c0 4.710938 3.820312 8.53125 8.535156 8.53125h354.890625c10.441407 25.761719 35.445313 42.628907 63.242188 42.667969zm51.199219-68.265625c0 28.277344-22.921876 51.199219-51.199219 51.199219-28.277344 0-51.199219-22.921875-51.199219-51.199219s22.921875-51.199219 51.199219-51.199219c28.265625.027344 51.171875 22.933594 51.199219 51.199219zm-102.398438-418.132813c0-4.714843 3.820312-8.535156 8.53125-8.535156s8.535156 3.820313 8.535156 8.535156v34.132813c0 4.710937-3.820312 8.53125-8.535156 8.53125-4.710938 0-8.53125-3.820313-8.53125-8.53125zm-68.269531 0c0-4.714843 3.820312-8.535156 8.535156-8.535156 4.710937 0 8.53125 3.820313 8.53125 8.535156v34.132813c0 4.710937-3.820313 8.53125-8.53125 8.53125-4.714844 0-8.535156-3.820313-8.535156-8.53125zm-187.730469 0c0-4.714843 3.820312-8.535156 8.53125-8.535156 4.714844 0 8.535156 3.820313 8.535156 8.535156v34.132813c0 4.710937-3.820312 8.53125-8.535156 8.53125-4.710938 0-8.53125-3.820313-8.53125-8.53125zm-68.269531 0c0-4.714843 3.820312-8.535156 8.535156-8.535156 4.710937 0 8.53125 3.820313 8.53125 8.535156v34.132813c0 4.710937-3.820313 8.53125-8.53125 8.53125-4.714844 0-8.535156-3.820313-8.535156-8.53125zm-34.132813 25.597657h17.066406v8.535156c0 14.136719 11.460938 25.597656 25.601563 25.597656 14.136719 0 25.597656-11.460937 25.597656-25.597656v-8.535156h17.066407v8.535156c0 14.136719 11.464843 25.597656 25.601562 25.597656 14.140625 0 25.601562-11.460937 25.601562-25.597656v-8.535156h136.53125v8.535156c0 14.136719 11.460938 25.597656 25.601563 25.597656 14.136719 0 25.601563-11.460937 25.601563-25.597656v-8.535156h17.066406v8.535156c0 14.136719 11.460937 25.597656 25.597656 25.597656 14.140625 0 25.601562-11.460937 25.601562-25.597656v-8.535156h17.066407v68.265625h-409.601563zm0 401.066406v-315.730469h409.601563v238.933594c-37.484375-.21875-68.050781 29.992188-68.265625 67.476562-.019532 3.117188.175781 6.230469.585937 9.320313zm0 0" data-original="#000000" class="active-path" data-old_color="#000000" fill="#FFFFFF"/></g> </svg>
