<svg xmlns="http://www.w3.org/2000/svg" height="512px" viewBox="0 0 512 512" width="512px" class=""><g><path d="m512 497c0 8.28125-6.71875 15-15 15h-445.050781c-28.640625 0-51.949219-23.308594-51.949219-51.949219v-445.050781c0-8.28125 6.71875-15 15-15s15 6.71875 15 15v445.050781c0 12.097657 9.851562 21.949219 21.949219 21.949219h445.050781c8.28125 0 15 6.71875 15 15zm0 0" fill="#375e72" data-original="#375E72" class="" style="fill:#FFFFFF" data-old_color="#375e72"></path><g fill="#41d0e2"><path d="m461.53125 450.230469c8.285156 0 15-6.714844 15-15v-243.6875c0-8.285157-6.714844-15-15-15s-15 6.714843-15 15v243.6875c0 8.285156 6.714844 15 15 15zm0 0" data-original="#000000" class="active-path" style="fill:#FFFFFF" data-old_color="#000000"></path><path d="m391.53125 245.097656v190.132813c0 8.285156 6.714844 15 15 15s15-6.714844 15-15v-190.132813c0-8.285156-6.714844-15-15-15s-15 6.714844-15 15zm0 0" data-original="#000000" class="active-path" style="fill:#FFFFFF" data-old_color="#000000"></path><path d="m336.53125 325.421875v109.808594c0 8.285156 6.714844 15 15 15s15-6.714844 15-15v-109.808594c0-8.28125-6.714844-15-15-15s-15 6.71875-15 15zm0 0" data-original="#000000" class="active-path" style="fill:#FFFFFF" data-old_color="#000000"></path><path d="m281.671875 325.421875v109.808594c0 8.285156 6.71875 15 15 15 8.285156 0 15-6.714844 15-15v-109.808594c0-8.28125-6.714844-15-15-15-8.28125 0-15 6.71875-15 15zm0 0" data-original="#000000" class="active-path" style="fill:#FFFFFF" data-old_color="#000000"></path></g><path d="m226.671875 245.097656v190.132813c0 8.285156 6.71875 15 15 15 8.285156 0 15-6.714844 15-15v-190.132813c0-8.285156-6.714844-15-15-15-8.28125 0-15 6.714844-15 15zm0 0" fill="#b8e9f4" data-original="#B8E9F4" class="" style="fill:#FBFBFB" data-old_color="#b8e9f4"></path><path d="m171.671875 285.257812v149.972657c0 8.285156 6.71875 15 15 15 8.285156 0 15-6.714844 15-15v-149.972657c0-8.28125-6.714844-15-15-15-8.28125 0-15 6.71875-15 15zm0 0" fill="#b8e9f4" data-original="#B8E9F4" class="" style="fill:#FBFBFB" data-old_color="#b8e9f4"></path><path d="m116.761719 325.421875v109.808594c0 8.285156 6.714843 15 15 15 8.28125 0 15-6.714844 15-15v-109.808594c0-8.28125-6.71875-15-15-15-8.285157 0-15 6.71875-15 15zm0 0" fill="#b8e9f4" data-original="#B8E9F4" class="" style="fill:#FBFBFB" data-old_color="#b8e9f4"></path><path d="m76.898438 450.230469c8.285156 0 15-6.714844 15-15v-109.808594c0-8.28125-6.714844-15-15-15-8.28125 0-15 6.71875-15 15v109.808594c0 8.285156 6.71875 15 15 15zm0 0" fill="#b8e9f4" data-original="#B8E9F4" class="" style="fill:#FBFBFB" data-old_color="#b8e9f4"></path><path d="m405.300781 47.738281-23.539062 70.992188c-2.871094 8.640625-10.902344 14.109375-19.53125 14.109375-2.089844 0-4.210938-.320313-6.300781-.988282-11.050782-3.550781-16.980469-15.511718-13.121094-26.453124l.0625-.1875c2.449218-6.941407-5.019532-13.191407-11.410156-9.5625l-65.03125 36.890624-105.691407 59.949219c-3.589843 2.042969-7.5 3.011719-11.347656 3.011719-8.019531 0-15.820313-4.199219-20.0625-11.679688-6.277344-11.070312-2.386719-25.140624 8.671875-31.421874l128.429688-72.847657 42.289062-23.992187c6.390625-3.628906 4.859375-13.25-2.347656-14.699219l-.199219-.039063c-11.371094-2.300781-18.601563-13.539062-15.972656-24.839843 2.550781-10.992188 13.492187-17.878907 24.511719-15.441407l73.019531 16.222657c13.878906 3.078125 22.050781 17.488281 17.570312 30.976562zm0 0" fill="#ffda73" data-original="#FFDA73" class="" style="fill:#FFFFFF" data-old_color="#ffda73"></path><path d="m331.460938 95.648438-65.03125 36.890624v-52.988281l42.289062-23.992187c6.390625-3.628906 4.859375-13.25-2.347656-14.699219l-.199219-.039063c-11.371094-2.300781-18.601563-13.539062-15.972656-24.839843 2.550781-10.992188 13.492187-17.878907 24.511719-15.441407l73.019531 16.222657c13.878906 3.078125 22.050781 17.488281 17.570312 30.976562l-23.539062 70.992188c-2.871094 8.640625-10.902344 14.109375-19.53125 14.109375-2.089844 0-4.210938-.320313-6.300781-.988282-11.050782-3.550781-16.980469-15.511718-13.121094-26.453124l.0625-.1875c2.449218-6.941407-5.019532-13.191407-11.410156-9.5625zm0 0" fill="#ffbe00" data-original="#FFBE00" class="" style="fill:#FDFDFD" data-old_color="#ffbe00"></path><path d="m512 497c0 8.28125-6.71875 15-15 15h-230.570312v-30h230.570312c8.28125 0 15 6.71875 15 15zm0 0" fill="#183747" data-original="#183747" class="" style="fill:#FDFDFD" data-old_color="#183747"></path></g></svg>