<svg xmlns="http://www.w3.org/2000/svg" xmlns:xlink="http://www.w3.org/1999/xlink" id="svg" width="400" height="501.08303249097474" viewBox="0, 0, 400,501.08303249097474"><g id="svgg"><path id="path0" d="M126.278 86.883 C 126.280 89.001,126.365 89.808,126.466 88.676 C 126.568 87.543,126.566 85.811,126.463 84.825 C 126.360 83.839,126.276 84.765,126.278 86.883 M128.685 87.846 C 128.687 89.964,128.771 90.770,128.873 89.638 C 128.975 88.506,128.973 86.773,128.870 85.788 C 128.766 84.802,128.683 85.728,128.685 87.846 M126.756 108.303 C 126.756 110.289,126.841 111.101,126.945 110.108 C 127.049 109.116,127.049 107.491,126.945 106.498 C 126.841 105.505,126.756 106.318,126.756 108.303 M129.163 109.266 C 129.163 111.252,129.248 112.064,129.352 111.071 C 129.456 110.078,129.456 108.454,129.352 107.461 C 129.248 106.468,129.163 107.280,129.163 109.266 M127.238 129.483 C 127.238 131.468,127.323 132.280,127.426 131.288 C 127.530 130.295,127.530 128.670,127.426 127.677 C 127.323 126.685,127.238 127.497,127.238 129.483 M129.644 130.445 C 129.644 132.431,129.729 133.243,129.833 132.250 C 129.937 131.258,129.937 129.633,129.833 128.640 C 129.729 127.647,129.644 128.460,129.644 130.445 M95.307 155.716 C 100.199 160.614,104.310 164.621,104.443 164.621 C 104.575 164.621,100.681 160.614,95.788 155.716 C 90.896 150.818,86.785 146.811,86.652 146.811 C 86.520 146.811,90.415 150.818,95.307 155.716 M127.719 150.662 C 127.719 152.647,127.804 153.460,127.908 152.467 C 128.012 151.474,128.012 149.850,127.908 148.857 C 127.804 147.864,127.719 148.676,127.719 150.662 M130.126 151.625 C 130.126 153.610,130.211 154.422,130.315 153.430 C 130.418 152.437,130.418 150.812,130.315 149.819 C 130.211 148.827,130.126 149.639,130.126 151.625 M95.788 159.567 C 100.681 164.465,104.792 168.472,104.924 168.472 C 105.056 168.472,101.162 164.465,96.270 159.567 C 91.377 154.669,87.266 150.662,87.134 150.662 C 87.001 150.662,90.896 154.669,95.788 159.567 M128.200 171.841 C 128.200 173.827,128.285 174.639,128.389 173.646 C 128.493 172.653,128.493 171.029,128.389 170.036 C 128.285 169.043,128.200 169.856,128.200 171.841 M130.610 173.045 C 130.612 175.162,130.697 175.969,130.798 174.837 C 130.900 173.705,130.899 171.972,130.795 170.986 C 130.692 170.000,130.609 170.927,130.610 173.045 M125.391 185.319 C 126.963 186.907,128.357 188.207,128.490 188.207 C 128.622 188.207,127.444 186.907,125.872 185.319 C 124.301 183.730,122.906 182.431,122.774 182.431 C 122.641 182.431,123.819 183.730,125.391 185.319 M126.824 190.012 C 131.199 194.537,131.436 194.651,131.331 192.178 L 131.254 190.373 131.054 192.011 L 130.855 193.648 126.920 189.845 L 122.984 186.041 126.824 190.012 M72.857 231.047 C 72.857 233.562,72.938 234.591,73.037 233.333 C 73.136 232.076,73.136 230.018,73.037 228.761 C 72.938 227.503,72.857 228.532,72.857 231.047 M70.450 232.491 C 70.450 235.006,70.531 236.035,70.631 234.777 C 70.730 233.520,70.730 231.462,70.631 230.205 C 70.531 228.947,70.450 229.976,70.450 232.491 M92.419 238.989 C 97.311 243.887,101.422 247.894,101.555 247.894 C 101.687 247.894,97.792 243.887,92.900 238.989 C 88.008 234.091,83.897 230.084,83.764 230.084 C 83.632 230.084,87.526 234.091,92.419 238.989 M92.659 242.599 C 97.419 247.365,101.422 251.264,101.554 251.264 C 101.687 251.264,97.901 247.365,93.141 242.599 C 88.381 237.834,84.378 233.935,84.246 233.935 C 84.114 233.935,87.900 237.834,92.659 242.599 M72.376 258.002 C 72.376 260.517,72.457 261.546,72.556 260.289 C 72.655 259.031,72.655 256.974,72.556 255.716 C 72.457 254.458,72.376 255.487,72.376 258.002 M69.969 259.446 C 69.969 261.961,70.050 262.990,70.149 261.733 C 70.248 260.475,70.248 258.418,70.149 257.160 C 70.050 255.903,69.969 256.931,69.969 259.446 M124.428 270.517 C 127.332 273.430,129.815 275.812,129.947 275.812 C 130.080 275.812,127.813 273.430,124.910 270.517 C 122.007 267.605,119.523 265.223,119.391 265.223 C 119.258 265.223,121.525 267.605,124.428 270.517 M123.466 272.924 C 125.571 275.042,127.402 276.775,127.535 276.775 C 127.667 276.775,126.053 275.042,123.947 272.924 C 121.842 270.806,120.011 269.073,119.878 269.073 C 119.746 269.073,121.360 270.806,123.466 272.924 M79.663 281.107 C 83.893 285.343,87.462 288.809,87.594 288.809 C 87.726 288.809,84.374 285.343,80.144 281.107 C 75.915 276.871,72.346 273.406,72.213 273.406 C 72.081 273.406,75.433 276.871,79.663 281.107 M78.941 283.755 C 83.833 288.652,87.945 292.659,88.077 292.659 C 88.209 292.659,84.315 288.652,79.422 283.755 C 74.530 278.857,70.419 274.850,70.287 274.850 C 70.154 274.850,74.049 278.857,78.941 283.755 M114.320 315.283 C 119.080 320.048,123.083 323.947,123.215 323.947 C 123.347 323.947,119.561 320.048,114.801 315.283 C 110.042 310.517,106.039 306.619,105.907 306.619 C 105.774 306.619,109.560 310.517,114.320 315.283 M114.801 319.134 C 119.561 323.899,123.564 327.798,123.696 327.798 C 123.829 327.798,120.043 323.899,115.283 319.134 C 110.523 314.368,106.520 310.469,106.388 310.469 C 106.256 310.469,110.042 314.368,114.801 319.134 " stroke="none" fill="#000000" fill-rule="evenodd"></path></g></svg>