<?xml version="1.0"?>
<svg xmlns="http://www.w3.org/2000/svg" height="512px" viewBox="0 0 64 64" width="512px" class=""><g><path d="m3 48a7 7 0 0 1 7-7h12a7 7 0 0 1 7 7v11a2.006 2.006 0 0 1 -2 2h-2.25a2 2 0 0 1 -1.98-1.74l-.72-5.39a1 1 0 0 0 -.99-.87h-10.12a1 1 0 0 0 -.99.87l-.72 5.39a2 2 0 0 1 -1.98 1.74h-2.25a2.006 2.006 0 0 1 -2-2z" fill="#bddbff" data-original="#BDDBFF" class="" style="fill:#FFFFFF" data-old_color="#bddbff"/><path d="m54 41a7 7 0 0 1 7 7v11a2.006 2.006 0 0 1 -2 2h-2.25a2 2 0 0 1 -1.98-1.74l-.72-5.39a1 1 0 0 0 -.99-.87h-10.12a1 1 0 0 0 -.99.87l-.72 5.39a2 2 0 0 1 -1.98 1.74h-2.25a2.006 2.006 0 0 1 -2-2v-11a7 7 0 0 1 7-7z" fill="#bddbff" data-original="#BDDBFF" class="" style="fill:#FFFFFF" data-old_color="#bddbff"/><g fill="#3d9ae2"><path d="m10 44h-2v2h-2v2h2v2h2v-2h2v-2h-2z" data-original="#000000" class="active-path" style="fill:#FFFFFF" data-old_color="#000000"/><path d="m22 44h2v2h-2z" data-original="#000000" class="active-path" style="fill:#FFFFFF" data-old_color="#000000"/><path d="m24 46h2v2h-2z" data-original="#000000" class="active-path" style="fill:#FFFFFF" data-old_color="#000000"/><path d="m22 48h2v2h-2z" data-original="#000000" class="active-path" style="fill:#FFFFFF" data-old_color="#000000"/><path d="m20 46h2v2h-2z" data-original="#000000" class="active-path" style="fill:#FFFFFF" data-old_color="#000000"/><path d="m13 44h2v2h-2z" data-original="#000000" class="active-path" style="fill:#FFFFFF" data-old_color="#000000"/><path d="m17 44h2v2h-2z" data-original="#000000" class="active-path" style="fill:#FFFFFF" data-old_color="#000000"/><path d="m42 44h-2v2h-2v2h2v2h2v-2h2v-2h-2z" data-original="#000000" class="active-path" style="fill:#FFFFFF" data-old_color="#000000"/><path d="m54 44h2v2h-2z" data-original="#000000" class="active-path" style="fill:#FFFFFF" data-old_color="#000000"/><path d="m56 46h2v2h-2z" data-original="#000000" class="active-path" style="fill:#FFFFFF" data-old_color="#000000"/><path d="m54 48h2v2h-2z" data-original="#000000" class="active-path" style="fill:#FFFFFF" data-old_color="#000000"/><path d="m52 46h2v2h-2z" data-original="#000000" class="active-path" style="fill:#FFFFFF" data-old_color="#000000"/><path d="m45 44h2v2h-2z" data-original="#000000" class="active-path" style="fill:#FFFFFF" data-old_color="#000000"/><path d="m49 44h2v2h-2z" data-original="#000000" class="active-path" style="fill:#FFFFFF" data-old_color="#000000"/><path d="m61 38a1 1 0 0 0 1-1v-4a1 1 0 0 0 -1-1h-8v-13a1 1 0 0 0 -1-1h-3.051a16.977 16.977 0 0 0 -33.9 0h-3.049a1 1 0 0 0 -1 1v11h-8a1 1 0 0 0 -1 1v4a1 1 0 0 0 1 1h12v4h-5a8.009 8.009 0 0 0 -8 8v11a3 3 0 0 0 3 3h2.249a3.01 3.01 0 0 0 2.974-2.6l.719-5.4h10.116l.719 5.4a3.01 3.01 0 0 0 2.974 2.6h2.249a3 3 0 0 0 3-3v-11a8.009 8.009 0 0 0 -8-8h-5v-5a1 1 0 0 0 -1-1h-12v-2h8a1 1 0 0 0 1-1v-11h2.051a16.977 16.977 0 0 0 33.9 0h2.049v13a1 1 0 0 0 1 1h8v2h-12a1 1 0 0 0 -1 1v3h-5a8.009 8.009 0 0 0 -8 8v11a3 3 0 0 0 3 3h2.249a3.01 3.01 0 0 0 2.974-2.6l.719-5.4h10.116l.719 5.4a3.01 3.01 0 0 0 2.974 2.6h2.249a3 3 0 0 0 3-3v-11a8.009 8.009 0 0 0 -8-8h-5v-2zm-33 10v11a1 1 0 0 1 -1 1h-2.249a1 1 0 0 1 -.991-.868l-.72-5.4a2.005 2.005 0 0 0 -1.982-1.732h-10.116a2.005 2.005 0 0 0 -1.982 1.735l-.72 5.4a1 1 0 0 1 -.991.865h-2.249a1 1 0 0 1 -1-1v-11a6.006 6.006 0 0 1 6-6h12a6.006 6.006 0 0 1 6 6zm4-14a15 15 0 1 1 15-15 15.017 15.017 0 0 1 -15 15zm28 14v11a1 1 0 0 1 -1 1h-2.249a1 1 0 0 1 -.991-.868l-.72-5.4a2.005 2.005 0 0 0 -1.982-1.732h-10.116a2.005 2.005 0 0 0 -1.982 1.735l-.72 5.4a1 1 0 0 1 -.991.868h-2.249a1 1 0 0 1 -1-1v-11.003a6.006 6.006 0 0 1 6-6h12a6.006 6.006 0 0 1 6 6z" data-original="#000000" class="active-path" style="fill:#FFFFFF" data-old_color="#000000"/><path d="m39 14h-4a2 2 0 0 0 -2 2v2a2 2 0 0 0 2 2h4v2h-4v-1h-2v1a2 2 0 0 0 2 2h4a2 2 0 0 0 2-2v-2a2 2 0 0 0 -2-2h-4v-2h4v1h2v-1a2 2 0 0 0 -2-2z" data-original="#000000" class="active-path" style="fill:#FFFFFF" data-old_color="#000000"/><path d="m29 15.8-2 4.666-2-4.666v-1.8h-2v2a.989.989 0 0 0 .081.394l3 7a1 1 0 0 0 1.838 0l3-7a.989.989 0 0 0 .081-.394v-2h-2z" data-original="#000000" class="active-path" style="fill:#FFFFFF" data-old_color="#000000"/></g></g> </svg>
